<svg xmlns="http://www.w3.org/2000/svg" width="220" height="220" viewBox="0 0 220 220">
  <g fill="#3d2412" fill-opacity="0.16">
    <g transform="translate(28 18) rotate(-28)">
      <ellipse cx="16" cy="22" rx="13" ry="21"/>
      <path fill="#fff8ee" fill-opacity="0.22" d="M16 5c-3 8-3 26 0 34 3-8 3-26 0-34z"/>
    </g>
    <g transform="translate(148 36) rotate(18)">
      <ellipse cx="16" cy="22" rx="12" ry="19"/>
      <path fill="#fff8ee" fill-opacity="0.2" d="M16 6c-2.6 7-2.6 23 0 30 2.6-7 2.6-23 0-30z"/>
    </g>
    <g transform="translate(86 118) rotate(-8)">
      <ellipse cx="16" cy="22" rx="13" ry="21"/>
      <path fill="#fff8ee" fill-opacity="0.2" d="M16 5c-3 8-3 26 0 34 3-8 3-26 0-34z"/>
    </g>
    <g transform="translate(178 148) rotate(34)">
      <ellipse cx="14" cy="20" rx="11" ry="17"/>
      <path fill="#fff8ee" fill-opacity="0.2" d="M14 6c-2.4 6-2.4 20 0 26 2.4-6 2.4-20 0-26z"/>
    </g>
    <g transform="translate(18 156) rotate(12)">
      <ellipse cx="12" cy="18" rx="10" ry="16"/>
      <path fill="#fff8ee" fill-opacity="0.18" d="M12 5c-2 5.5-2 18 0 24 2-6 2-18.5 0-24z"/>
    </g>
  </g>
</svg>
